<?xml version="1.0" standalone="no"?>
<!DOCTYPE svg PUBLIC "-//W3C//DTD SVG 20010904//EN"
 "http://www.w3.org/TR/2001/REC-SVG-20010904/DTD/svg10.dtd">
<svg version="1.0" xmlns="http://www.w3.org/2000/svg"
 width="400.000000pt" height="400.000000pt" viewBox="0 0 400.000000 400.000000"
 preserveAspectRatio="xMidYMid meet">
<metadata>
Created by potrace 1.14, written by Peter Selinger 2001-2017
</metadata>
<g transform="translate(0.000000,400.000000) scale(0.100000,-0.100000)"
fill="#000000" stroke="none">
<path d="M1805 3970 c-516 -59 -992 -310 -1313 -695 -542 -649 -621 -1560
-198 -2279 287 -487 763 -829 1310 -941 641 -132 1301 57 1773 509 784 749
819 2002 78 2785 -311 329 -694 531 -1145 606 -115 19 -395 27 -505 15z m433
-546 c196 -29 374 -97 498 -190 169 -127 254 -296 254 -504 0 -160 -53 -298
-158 -411 -100 -109 -245 -179 -397 -194 l-70 -7 31 33 c51 55 68 97 69 169 0
54 -5 73 -28 113 -93 158 -316 151 -400 -13 -25 -49 -28 -63 -24 -120 16 -192
214 -423 444 -515 32 -13 96 -33 142 -45 78 -21 94 -21 198 -12 132 13 265 54
357 109 110 66 220 184 287 307 l27 49 5 -39 c30 -205 7 -445 -65 -664 -95
-292 -311 -576 -578 -757 -152 -103 -384 -196 -575 -229 -134 -23 -368 -23
-495 -1 -250 45 -448 132 -657 290 -114 84 -169 145 -216 234 -49 94 -68 177
-68 292 0 315 247 579 561 597 l85 5 -39 -32 c-79 -67 -106 -179 -65 -269 27
-60 54 -88 114 -116 64 -31 125 -31 190 0 97 45 140 121 132 233 -9 118 -78
243 -199 359 -107 103 -212 163 -353 200 -92 24 -272 24 -370 0 -87 -21 -237
-93 -291 -140 -23 -19 -44 -33 -46 -30 -7 6 17 140 41 233 59 224 199 466 371
640 235 238 517 379 870 434 68 11 322 6 418 -9z"/>
</g>
</svg>
